<svg width="1789" height="1385" viewBox="0 0 1789 1385" fill="none" xmlns="http://www.w3.org/2000/svg">
<path d="M369.5 194.5H1737.5C1765.11 194.5 1787.5 216.886 1787.5 244.5V391.5C1787.5 419.114 1765.11 441.5 1737.5 441.5H119C91.3857 441.5 69 463.886 69 491.5V664C69 691.614 91.3858 714 119 714H1737.5C1765.11 714 1787.5 736.386 1787.5 764V890C1787.5 917.614 1765.11 940 1737.5 940H51C23.3857 940 1 962.386 1 990V1159C1 1186.61 23.3858 1209 51 1209H1085" stroke="#7F3907" stroke-width="2" stroke-dasharray="14 14"/>
</svg>
